<mxfile host="Electron" agent="Mozilla/5.0 (Windows NT 10.0; Win64; x64) AppleWebKit/537.36 (KHTML, like Gecko) draw.io/24.7.17 Chrome/128.0.6613.36 Electron/32.0.1 Safari/537.36" version="24.7.17">
  <diagram name="Страница — 1" id="Qg69sMTdMIblpqFMX3Wm">
    <mxGraphModel dx="1783" dy="997" grid="1" gridSize="10" guides="1" tooltips="1" connect="1" arrows="1" fold="1" page="1" pageScale="1" pageWidth="1169" pageHeight="827" math="0" shadow="0">
      <root>
        <mxCell id="0" />
        <mxCell id="1" parent="0" />
        <mxCell id="MzFQnDpiPNJAdarxpXRt-1" value="" style="shape=image;verticalLabelPosition=bottom;labelBackgroundColor=default;verticalAlign=top;aspect=fixed;imageAspect=0;image=data:image/png,iVBORw0KGgoAAAANSUhEUgAAAlQAAAKcCAIAAAChQbOnAAAgAElEQVR4Ae2dT2wdSX6Y39Enw0iCIEbgXAz7aAR4l5gXThIYyEE5GUgsw4cFAjFYBF4MlATwZg+cwyALewQO7Zg2hMjYDZQ5hHYQSEa4CoKEHiDQZHffhLYgYkOTAD2jcMejaKCQlnbFjTKd6a6uql91dT++97r6b32EQHbXn19VfdXdn6q7yTdJ+IIABCAAAQhERmAS2XgZLgQgAAEIQCBBfhwEEIAABCAQHQHkF92UM2AIQAACEEB+HAMQgAAEIBAdAeQX3ZQzYAhAAAIQQH4cAxCAAAQgEB0B5BfdlDNgCEAAAhBAfhwDEIAABCAQHQHkF92UM2AIQAACEEB+HAMQgAAEIBAdAeQX3ZQzYAhAAAIQQH4cAxCAAAQgEB0B5BfdlDNgCEAAAhBAfhwDEIAABCAQHQHkF92UM2AIQAACEEB+HAMQgAAEIBAdAeQX3ZQzYAhAAAIQQH4cAxCAAAQgEB0B5BfdlDNgCEAAAhBAfhwDEIAABCAQHQHkF92UM2AIQAACEEB+HAMQgAAEIBAdAeQX3ZQzYAhAAAIQaEl+k3cP+DdWApxFEIAABAZHAPlh5boEBnfQ02EIQAACrcoveesN/o2JgFrLchZBAAIQGBwB5IePVyeA/AZ3wtNhCEBAEUB+q1/6x7SGW20syI/rCAQgMFACyA/5rU4A+Q30tKfbEIAA8lv90r/aamlMtZAfVxAIQGCgBJAf8ludAPIb6GlPtyEAAeS3+qV/TGu41caC/LiCQAACAyWA/JDf6gSQ30BPe7oNAQggv9Uv/autlsZUC/lxBYEABAZKAPm1LL+f25hM1v7e3xqHApHfQE97ug0BCIxNftN3vr3gv470g/w46SAAAQh0TwD5DXHllxp041f+dkf+tsRY+XV/BtMDCEBgJQLIz17KW3FJiJXfV35mDfmtdLhTCQIQgIAiMEL5FRw2fefbhZTkrTdKE/1iDaQgP049CEAAAt0TQH75yu/47/34ZPKTe2/9re2fmpgveWtxbzqZ/NTPHP/KT6a5P/Uzx2/ldx3TdPv1k3s6XYtTBvzx7a9I+WVZ05/TJd9IVOt+iok//Tm3uclEF3bSdaKI3MgCl9ue3Z/B9AACEFiJAPKT8ptMJj++/ZXcapkO7aO13C6OV1KTeSK0EZLs/qTxU/JWVt6+7XmV/PzqqvXibc8sjvXxz204nWxEe0qryG+lk45KEIBA9wRGKL/V3vYsqE5d3FPhaalk8nMWdjJXr7Ecn5UUyLylf9XBKZxFcFJKqqsPRCzKL3WqXKTqzjSoPdUE8uv+DKYHEIDASgRGKL/Cpb/08Z6fqG97Oq9QykRPRfIGptWMqFJaQCY6qvPkV620ovyyOGLNWiDQ3C7yW+mkoxIEINA9AeQnb3s6C7vkrTeEyd5YUH5J+lBQxZGeM3aUiXPlVzScifCGuptaWOql3VNfbd3zTN56A/l1fwbTAwhAYCUCyC+w/IQvpeeMumRiSPnly7tMmeZWbXNrPhUZ+a100lEJAhDonsAI5VfjmZ94VyV9uubIyVv5+WvBQpWsun5kmHsoe1lUP/PzI6Rq1C/IOK07GpuzKHzrjWzpWRiIUW/gDeTX/RlMDyAAgZUIjE1+jiTU6yGLfc9WbBN9xzKVRHYj0d4I9eWXv8wp9FaoknnIyCy/XTmxb3sqUZl3VTLbWfnludqFb6Qvi+a3NOXyUabrbosurQxkkYrIb6WTjkoQgED3BJBfvhjKb1eq24b50zNrvtyFJVLRxlJV/AIyYJpb8JZ6rJi3t/Er/movWwvm+UaT2ou5KZ0yrd3z5Jlf96cvPYAABFYlgPxc+RV/RT3PXWQZFGEZVn6rnnfUgwAEOiaA/JDf6oJHfh2fvjQPAQisSgD5IT/kt+rZQz0IQGCwBJAf8kN+gz196TgEILAqAeS3+qU/wod8hSFz23PV8456EIBAxwSQH/JbnQDy6/j0pXkIQGBVAshv9Ut/YRkU4S7yW/W8ox4EINAxAeSH/FYngPw6Pn1pHgIQWJVAq/JT10q+j4zAqsce9SAAAQh0RqBV+XU2ShpuhgArv2a4EhUCEGicAPJrHPGIG0B+I55chgaBcRNAfuOe32ZHh/ya5Ut0CECgMQLIrzG0EQRGfhFMMkOEwDgJIL9xzms7o0J+7XCmFQhAIDgB5BccaUQBkV9Ek81QITAuAshvXPPZ7miQX7u8aQ0CEAhGAPkFQxlhIOQX4aQzZAiMgwDyG8c8djMK5NcNd1qFAARqE0B+tRFGHAD5RTz5DB0CwyaA/Krm73h7bZJ+rW0fVxVpIH1vY36j3fSqaqDIr4oM6RCAQM8JIL+qCepEM7n7qpXbSa+qECXIrxINGRCAQL8JdCO/6dZsujVTZGZPLq7fPZxuza7deXT/8bMkSVSu+d4RwOCaycS2sTd/OKz85vMhFwIQgEAQAt3ITxlODeDG7tH1u4f7J8/Xdw6u3XlkRnXx6vXNeyebD05NSrsbQeWng02ukt9VY9SB2r0ZW9UrVn5VZEiHAAR6TqB7+X2x5ps9uUiS5L0PPzXLwbPzy+t3D7szX5IkQTWjgyG/np8PdA8CEIiEQPfyU6AvXr1e3zm4/fBM7d68d6Jue5oUPR9SI+YJ2URIRRTI881qS5RPXysx6Tq2yF/b3nNfeNFh7ZJLl7YpaRydmr23krVRSCltWfdAtyL7Jup7vdL1OvrJyq8j8DQLAQjUJdAX+d28d7K+c3Dx6rUc0OaDU7MW1OlGD7ld7I/cZX6BLEMoxFYRAvSr5cVyt+l8qzod0aToIoX4upxI9rTrja5yMG6vdL2OfiK/jsDTLAQgUJdAL+S3+eB0fefg6OnLwmj2T57PkZ+WjpGLSrAK0gXkesykmVpKM4Vdc9PTvHepw5oAZo2Xp+gCpkZ263RbveBiMiu1p4ZeKHdlrwrA2t5Ffm0Tpz0IQCAQge7l55tPPe2bPbm4sXt0Y/fIHWlBD2mmm+TuqcpaItZchVolBXScgttsCLeOLi5vWNqez8+tKue2kJXSgWw3bOX2t5Bf+8xpEQIQCEKgG/nJX2Mw22ojSZL9k+fX7jyabs1u7B6pd2HEUPXVX0jGTXL3VM0Si7jK1AXEwkzHWVB+OkK5lXQw0WsxJrvpltMxq3tla3ayhfw6wU6jEIBAfQLdyG+Rfl++v/ni7cmLtyeX72+K8q4esgw3yd1TNbVFpJmcciUFCklO8SyqW8DPF512TSszCttuFLeFkkYLtVvfRX6tI6dBCEAgDIE+yu/F25Mk+Tz9/vnnyefZhh2s0YP+u2M2QS2QzL5YL5nnc3blpcWiUkwlXcAmFFZ++h0Zr4AJqENkjxrzTpjSUr92UGbLlMvqmT0d0iZcEccEbHYD+TXLl+gQgEBjBHonP7XaU9/ny0+8PZluah0YQUj5eb+CoCubQtZdOiv/6cUt5JuGrWFFCR3fDa9TvWktdt6tJuLqXnkRWk1Afq3ipjEIQCAcgd7Jzwzt6tuewgzCJkV/mICeAEWlrJCIt7Z9rOMIzYgCG3vGdaKA14TI0/FSgxVbNn00hWwJ0Wh5r0zl9jeQX/vMaRECEAhCoL/yqxheiR4qSpLcOAHk1zhiGoAABJohgPya4RpHVOQXxzwzSgiMkADy62RSxb3M3j3IWwII8lsCFkUhAIE+EUB+fZqNofUF+Q1txugvBCCQExic/Ji5HhFAfj2aDLoCAQgsQwD5LUOLsi4B5OfyYA8CEBgMAeQ3mKnqYUeRXw8nhS5BAAKLEEB+i1CiTDkB5FfOhVQIQKD3BFqVn7pW8n1kBHp/kNNBCEAAAkUCrcqv2Dj7AyfAym/gE0j3IRAvAeQX79zXHznyq8+QCBCAQCcEkF8n2EfSKPIbyUQyDAjERwD5xTfn4UaM/MKxJBIEINAqAeTXKu6RNYb8RjahDAcC8RBAfvHMdfiRIr/wTIkIAQi0QgD5tYJ5pI0gv5FOLMOCwPgJIL/xz3FzI0R+zbElMgQg0CgB5Nco3pEHR34jn2CGB4HxEkB+453b5keG/JpnTAsQgEAjBGKRX/rpsWvbx40wjDco8ot37hk5BAZOYMTyO95es8JDfk0cqMivCarEhAAEWiAwJvmlgtvYM9CQn0HR1Abya4oscSEAgYYJdCy/zQen063Z2fmlHObth2fTrZn5J7PmbWeyE/JzyrLyc3AE2kF+gUASBgIQaJtAl/K7ePV6fedgujW7tf+xHPfZ+eXsycXsycX6zsH1u4cya9428ptHp5E85NcI1iEHVYcE39shMOQjpfu+dym/+4+fre8c3Nr/+NqdRz4Jtf47evrSz0qXceYrW+s5KZP87qdc7cntNGBmyjwGL8L4iBdLQX6LcYqoVDsXfVrh1Kt/UnUpv+t3D2/sHt1//Gy6Nds/eZ4kibrVmSTJ2fnldGt2++GZN0LnSV6S7G2YG53eyk8KT24r82nledW8JkmoIsAZWEUm2nR9SHyUJPxrkIDmHO2BFmDgncnv6OlL81RvujW7ee9EjubG7lHFDc/UYsZ3sopSmsySwhPbnu1EnhOQnasIcAZeRSi6fH1INHjdR6tJ8pHmHN0BFnDAnclv88GpudupFn/mtRe1W3rDU9+v1Ms2SWKu1KzgvGK+NWVUtucQ4AycAyfOLH1IIL9mCWjOcR5lYUbdmfzWdw7e+/BTNQj15ou5yXnl256pydSXXOh5VrPCS2+P6t/5y4rp+vanjBQGbQRROAMjmOTlhqgPiWYv/Sz+NOflZofSkkBn8pOdWHFbacwsApeRH6pbkblbjTPQ5cFeog8J5NcsAc2ZQ251AkOWXyIXdPkNUWk1u9pzCnqSXJ1e7DU5A2M/Arzx60Oi2Us/Kz/N2ZsAEhYmMDj5idc7HaUVTJgCqJCfypBvzextmOXjwuAomCTmv/nAgEBOQF+UkV+zBDRnDrzVCQxQfvY5nX6MZ4af6i77yhaAlfLLxWgDyfWiCcbGlQQ4A69EFFsBfUg0e+ln5ac5x3Z8hRzv4OQXcvDEqkmAM7AmwPFV14cE8muWgOY8viOovREhv/ZYj68lzsDxzWnNEelDotlLf9Mrv+ym0eZxj39PX3OuOV1RV0d+UU9/zcFzBtYEOL7q+pAIKb/pO99e8F8oKSK/8R2Z/oiQn8+ElEUJ6CvdouUpN3oC+pBAfiEJ+FLXnEd/QDU4QOTXINzRh+YMHP0ULztAfUiEvPQvuOybvvNtXxKrpbDyW3beh1ge+Q1x1vrSZ32l60t/6EfnBPQhEVh+BYeVeq40sVBxwV3k1/mB1EIHkF8LkEfbhL7SjXaADGxZAvqQ6I/83t9es7/UNNn4pvFfajj79ct74vUWX35XF9775TTYWv6ajFNeNGpar7mhOS87P5S3BJCfZcHWsgQ4A5clNvry+pDoh/yON1PxWfd8cyPf/mYqPi2qJPkoc9V0+zjvtiu/BQo7rWS6tcFNoyGZaM6jP6AaHCDyaxDu6ENzBo5+ipcdoD4kQl7oV37m5zrMdqksPTOW1qQsILf1cs0rPJELx1SWG3u2OV0rZIrmvOz8UN4SQH6WBVvLEuAMXJbY6MvrQyLkhd5/mOenJMlHXmKVhNL0te33C0463p5OtMOE8JYqrEatbrTadWShoSC7mvPoD6gGB4j8GoQ7+tCcgaOf4mUHqA+JHsgvu+dZtgIr91mSPrTLF3BXyq+isB11GkF96dVkEOeZIJrzsvNDeUsA+VkWbC1LgDNwWWKjL68PCasBc71eecNb0vmLvLS5YrEl5Rdu5SfGrh462ud/Iku8X7MCGc159AdUgwNEfg3CHX1ozsDRT/GyA9SHRLCrvLLago/9XIs4T+ZklljYmX46hWUBua2DVBbWBUzYj7I1YvhboJrzsvNDeUsA+VkWbC1LgDNwWWKjL68PCXH1r7fEKdHJ4gHVrx/YG4/6xUtvQZbdpbQvrTjCW6pw2jfdStZPJ9TiPb+qpOY8+gOqwQEivwbhjj40Z+Dop3jZAepDoh/yUyrST9/S30ewL2Gq11J0nntn0jPWUoXTZ4r2y41cy+XCiJrzsvNDeUsA+VkWbC1LgDNwWWKjL68Pif7Ib5w90ZxHf0A1OEDk1yDc0YfmDBz9FC87QH1IjFM5odZt9eNozsvOD+UtAeRnWbC1LAHOwGWJjb68PiSQX7MENOfRH1ANDrBj+W0+OJ1uzc7OL+UQbz88m27NzD+ZxXavCHAG9mo6+tAZfUg0e+mvv3IaegTNuQ9zPtQ+dCm/i1ev13cOpluzW/sfS35n55ezJxezJxfrOwfX7x7KLLZ7RYAzsFfT0YfO6EMC+TVLQHPuw5wPtQ9dyu/+42frOwe39j++dueRz0+t/46evvSzsveS9etUG3u2wLH4A+5r28flGekrXzYnSSqjFbLcatn7YNvHokWnQdnAeLc5A8c7tyuOTB8SzV76h75uq99/zXnFaaJakiRdyu/63cMbu0f3Hz+bbs32T54nSaJudSZJcnZ+Od2a3X545k1SZhvrmb0NYzInJ9sxWXsbtkYmO73r1EllZ6ooJ+pySS5Cu58r0yRk+7a21+9RJnAGjnJa6wxKHxLIr1kCmnOduYq9bmfyO3r60jzVm27Nbt47kVNxY/eo4oZnKpkyx7i2y2Vl1CRjS/tVRZNlTF2niUx2Mr6Ta+qMe4MzcNzzu8Lo9CHR7KW//spp6BE05xWmiCo5gc7kt/ng1NztVIs/89qL2i294ZkkmWMm0jrZSHz1FFNURX2zNA9QEa3UfXnbuXlT+bm98FNGf5RxBo5+ipcdoDok+N4OgWVnh/KSQGfyW985eO/DT1VX1Jsv5ibnlW97ZquuTGNmDeiqTSsuXyOq8kZVBUuVRKuQX5aM/Ozxg/wsC7YyAhwS7RwIcK7PuTP51e+6swgsrvNEeC+rIL+8qLMInFME+Vm2nIGWBVsZAQ6Jdg4EONfnPGT5OQ/2PMUZNsWcbN8sA00xJ1rp0s8J5OvRT5GxR7nNGTjKaa0zKA6JOvQWrwvnxVlVlRyc/OQLma6iUvnId2HMK55ORrZjHtdVR8tMJ5/qOVHUy5+uQdMCbkoV9NGkcwaOZipDDYRDIhTJ+XHgPJ/PIrkDlJ95oDfxZJObLS9hHgjmN0iz5LXtY2Ept0JRXUqAuj03VwTJOfspi0zAoMtwBg56+proPIdEE1T9mHD2mSybMjj5LTtAyjdIgDOwQbjDDM0h0c68wbk+Z+RXn2G8EeQZ+MEfP/77O//xp7f+68/+5vvX/92Hn7z4UbxcIh65PCQixtD40OFcHzHyq88w3gjmDNy8+4c/8ev706/962tvvnXtzbd+/td++6/95gffOj2PF02sIzeHRKwAWho3nOuDRn71GcYbQZ2B3/pv3/nLX//P1//JP90QX1/68q/+9O9+93uf/TBeOlGOnItyO9MO5/qckV99hvFGUGfg3/mtvZ//td8W4ss3/8HXf++X9v4sXjpRjpyLcjvTDuf6nJFffYbxRlBn4F/59f/yi1/5F778vvTlX/2x3/rjzQ8+mfPvW6fnX//On/vfD57+4D+c/B//+ycvfvS9z35Y9T3emejNyPtxUTbvads3vlsjlL9B7r4cLlrXfassIMpWb/aDc3X/hpCD/IYwS33tozoD/9K7HxTueSoR/vOvfu3H/tWfzO/76fllqcw++P6LUvn9h5P/UypLpc9vHH72pf/00TcOPyvo9huHn5X+23/yF6X/Ts8vS//NHwu56cfEvHswefegaxRaMPL3flvqk/ntqSq56b5V5S/Wz35wXqyvfS2F/Po6M0PolzoD13/vg7/7z37DX/lt3v3DN35ffKhidyMqNdnp+WWp+faf/EWpKX2nolh/SgsXZfMhZUmSzJ5cXL97ON2aXbvz6P7jZ+YjzMynu/jRVk3RgulAftlf3vB/BdmORPcN+Vkm3Wwhv264j6NVdaX77vcv/sbWH/2jf/xl6b+vfvWrv/AHfxrVC59NK7ZKyVUKV+lVvWroCCzITxlOtaU+p2z/5Pn6zoH5RJckSS5evf7iE802H5yG65IWTBfyu2oUum/I7ypSTecjv6YJjzm+udLd+u4nP/s7//0ffu2djY2NN99881/+m3//C3/wp18sjMY8+NbHVqUxlV6lwCplFpatQXZLb3tOt2YK1RdrvtmTiyRJ3vvwU5N4dn75xSd3BjVfoj/4zP1zh63PV0WDyK8CTOvJyK915CNq0MgvSZIPvv/ijd8/Vil/89/+z6jWfCOa0rpDkYeEimU8p3YLn192896Juu1pPtGs0APzDE39mUHxBkt1jv17hqK4vh+p/1yhzPKFpIPn6zNdYLKxl+fI6rLLoqRJ1sGyu6F722v6Dy2aAstv+JyXjxF7DeQX+xFQZ/ycgXXojbKuf0gU5Hfz3sn6zsHFq9dy+JsPTgvF0lzjEe0ru5QTOhGZ5i6nqakVtWB5eytSVyjKz7SmI8thOJ3OC5iumJr5hm2rGGKRfZ/zIrUoIwkgP0mD7eUIcAYuxyuC0v4hIa22+eB0fefg6OnLAon9k+eyWJZrrWE1cby9vZd/9limEJOjXZXrz9RVBjK5V5U3+WaZmKeYgFd+cIspWWjac6FtqwBjoV2f80LVKCQIID8Bg80lCXAGLgls/MX9Q8JYzTefeto3e3JxY/foxu6RQ6cgEZmnXSb14RZ39xYvbyMW6rgBZWeK227JQpi0sC5g2yqGWGTf57xILcpIAshP0mB7OQKcgcvxiqB04ZCQv8ZgttVGkiT7J8+v3Xk03Zrd2D1S78JYQiXa0JllWVopaunn7i1e3gqpUMcNqDtS9tMtqcPk6760gi5g2yoLc1VagfNVxckvIYD8SqCQtCABzsAFQcVTbIVD4vL9zRdvT168Pbl8f9OC0o4wz/FsljaK1Idb3N1btnzaUqGOG9B2xd9ySxbClET2IyyUsgLnheLGVAj5xTTbocfKGRia6ODjLXVIvHh7kiSfp98//zz5PNuwALQ3JkJ/exvZEspkmQVVIcU1kDGZjVRVPi9h6utHfCbBtGg76m65Jc2ebtomSHW7IRbZW4rzIgEjLBOJ/NJj/crDNsLprzlkzsCaAMdXffFDQq321Pcy+dnVl3xPMj+Ljbxknj3HjWL0SX9FeXMv0g1n/1CLF7By5oolK1qeaK1WBpqfsTjn+XFizu1YfuoV57PzSzkHtx+eyccDMmvF7eyA1OfBijGo5hPgDPSZRJ6ywiFRftsz51hwh1wuFbLk+V00UBZsTvk0X2Rv7Jm9vMHSgKVTXVJSRF7bPtYF5FBKI81NXIHz3HgxZnYpP/XrrtOt2a39jyX7s/PL2ZOL2ZOLL96K/uJ9MJm14nZ2vMmTY8U4VHMJcAa6PNjryR+2Hv9EcOrVn+Mu5Xf/8bP1nYNb+x/LP/RnhqTWf/6vBGUF9P+e1F2KXGuliea/cPqGhnGgLF78X5j4v1p6eyLdLRSRJeztlqxzeWlVYm1726+s7rKsbZvBDnSDM3CgE9dctzkkmmMrI8NZ0lhtu0v5Xb97eGP36P7jZ9Ot2f7Jc/NX3pMkOTu/nG7Nyv/ikZKWcViSPwRP9jaEn1xdZVVsDf2+sS7vZvvxM2/qwvoGSfV+7kXTXrZv9tJ5chtcbeb6UIszsA+z0Ks+RHNI5Ge5/j91/lNcFZqdlmg4N4ixM/kdPX0pH+x98Wfd5SjVH4CXKWbb1ZpJLm44xYqyKe5ny8P8uHUqqqhZcXNYlxRwbZYWcF6vKTaX7ptwxY4PaZ8zcEiz1UpfOSRawczt5QCYO5Pf5oNTc7dTLf7May9qt+KGZ2oWZxXlQMg0Y/4zZgRTsE9h11mKlalNutHZtm3LkH4ImauerJuu2RAD3OJKN8BJa7bLHBLN8tXR4axJrP6zM/mt7xy89+GnquOFP/Q+721PVyNy3Nl6yy6oHAMVamW7RpFmI3OqU0/Hl4lyW+fnt0JzKZeVSNNEdrW+Rcj+b3IG9n+OWu4hh0Q7wOFcn3Nn8lux6wWNmSheumOgQm5h1wRJN5x6Okcmym2d7z7FKy1hEtONkbiPey/2AGBLEeCi3M6RAOf6nIcmP/fpmh1/0WfZvrm3WJpbbiC3omog9VXFmjLvgdOA8ZztnrFq+mFepltO/hB3OAOHOGuN9plDolG8JjicDYqVNwYnP/3LqFZd6m3PTFA6MdsRvvLXc07xTE1GSaqyDqVsK+WXp5jyeY9MBb8xNTuZIJ1AK89aXypyBvZlJnrTD3VI8L0dAr2Z9kF2ZIDySznndlOP63LtaLkov6QlhJ9sDSMpJ4Z7J1KEyoIUg9k/za56IBuquHOq36pxOjXIQ0Z0GvkJGGymBDgk2jkO4Fyf80DlV3/gS0VI5WekuVRNWdi5NyozBrvNGTjYqWuq4xwSTZF148LZ5bHKHvJbgJq/8FugkldkfO7jv/neJEefwEW5nUMAzvU5I78iw+PtNecuZnZ31Ekp1lhof4Tq4x7XQjMfVyEuyu3MN5zrc0Z+HkP5wC99pFdXfDpe/fumXle7TuAM7HoGetc+h0Q7UwLn+pyRX32G8UbgDIx37itGziFRASZwMpzrA0V+9RnGG4EzMN65rxg5h0QFmMDJcK4PFPnVZxhvBM7AeOe+YuQcEhVgAifDuT5Q5FefYbwROAPjnfuKkXNIVIAJnAzn+kCRX32G8UbgDIx37itGziFRASZwMpzrA0V+9RnGG4EzMN65rxh5Hw6JML+XWzHAniT3gXNPUKzcDeS3Mjoq8kvuHANFAn24KCO/4qywX0YA+ZVRIW0xAn240i3WU0q1RKAPhwTya2myB94M8hv4BHba/T5c6ToFQONFAlWHxOaD0+nW7Oz8UlaY97HVstyS28hvSWCRFkd+kU58kGFXXemCBCfIEAmUHhIXr16v7xxMt2a39j+Wgzo7v5w9uZg9uVjfObh+91Bm1dlGfnXoxVMX+cUz1+FHWnqlC98MERHN8DMAACAASURBVIdDoPSQuP/42frOwa39j6/deeQPRa3/jp6+9LOKnx0m/kRgajj7JTLKPlOsurD/N3edlNyjqv7adlkPu0kr5dxNVwbbKvKrmrr8sK/KJp0Pb+MY8AmUXpSv3z28sXt0//Gz6dZs/+R5kiTTrdl0a5Ykydn55XRrdvvhmR8q/9Ro6zX1sdX64zzF39zN3GT33VO3kKk+2dMUdlSX9cFJySqH+DyzkuHVSirlXCtifJWRX9Wcu2dQVam40zkD457/ktH7h8TR05dKder7zXsnstqN3aOqG55VZ2BZumcsbberCjsVs445KWn1AB/lKUccZtvnHCZuTFGQX9Vsl501VWUr09Mg9n+ulcWGmsEZONSZa6zf/iGx+eDU3O1Uiz/z2ovarbjhWXXulJ+YUlmihNgUQxaFxWZewEkpry9CdbXpc+6qJ8Ntt2P5tfkO2JKTFOKwd86jJdsfQnHOwCHMUqt99A+J9Z2D9z78VHVCvflibnLOe9uz8typODHT5Pz/maKE2JQYbGG/GSelor6M1c22z7mbfgy51S7l1/I7YEtOU4jD3jmPlmx/CMU5A4cwS632MdghUXnulJ+YsrgoITYFBlFYbOYFnJTy+iJUV5vBOHc1gB6026X8VnsHTB+b2U/9upe8tZgfr+kP55NoVUJZDTUPMuDa9rE87HWbdsIqUnT0ycae25z5X6kNYbbylkT7+oGF3zEnju6EaEqBEKH0/4Z1azLLbUaXWOInZ+ASsOIoGu6Q0Ee3x02emTrTKSwLyO0rC2cFsrNJX1DKquswnf4Mx7nTYXTaeJfyW+0dMH31tldulaIPV/U2lyMJ9fKz/Ej27AC3EUreK8s0pks4p1Y2X25KoQeJfi3NLVU10VlnhKedsy/tu+5G/p6b2VXN2qFm+2tra8WU7eO8aVUg312sc1WdztI5A+fiiTEz5CGhTgxzYrunlXc6y3LibFIniTln8muBLayuF3pflbYnUNoFUbc/MxqSc39G1W5POpPfyu+AqcNTH6w5LXmMFtxRNEZew7n0y+oyXx/2TuGsgJNSUl1FcUrlgf0fWYd1U2n2vGqyraycrFh4jTuNJcp7YUWe36tFUjgDF6EUVZnQh0R2cugbKuKszw5mnV7wk3dczyusz7c81saec5p4ofoymaE592VcbfajM/mt+g5YuRnkAesdr15CBlhUKS0gE0XZfHJkSlpSnJZi+mQpkVzYlC2pLC8lC+Sd6n74eSnz8go9WnSXM3BRUtGU45BoZ6rhXJ9zZ/Jb8R2wimWRvLB75vASFLY0WTmrtIBMlOFVZZEiNovzMSdLFJUt2a7pFV2aK269yMJ++HkpWZ4RqNko17bo3pxNzsA5cOLM4pBoZ97hXJ9zZ/Jbuev+9V3fuMgv41IPWSteQpYq4pQWkImibN5vkSI2i4OakyWKypZUsk3xItissv8HeMXFQtnPE31YbZMzcDVuI67FIdHO5MK5PueByk8vi3IAznVd6kHl+ymuOLLqhZBpHfsowYuQZee2dVp3pqQ6RxbzgosHdcUITleLme6oVBOijNiUzdfY5gysAW+cVTkk2plXONfnPFD5OX9zSIrIfcVD88ku+1ZlFW982Qd3qryQ3/xXwlSurW5eSxMW010p+TlPfm7D2Uhtt3ybXZFSIOW+SFrSs6uSOAOvIhRdPodEO1MO5/qcByq//J0s/eDKeW7luyTDpIWm6hTWefrOaR4wzS2GkfULr4Rl8XMxqQi2QybZJhVnrdiS84pmvpozvZaFr1CdHbZo2/Qniygyir1aZJ8zcBFKUZXhkGhnuuFcn/Ng5Vd/6ESoTYAzsDbCsQXgkGhnRuFcnzPyq88w3gicgfHOfcXIOSQqwAROhnN9oMivPsMFI7g3HPMbrPJB5IJxelSMM7BHk9GPrqhDgu/tEOjHnA+1F8hvqDPXh34jvz7MQq/60M5Fn1Y49eof9sOTX/0xEyEUAc7AUCSJAwEItEwA+bUMfFTNIb9RTSeDgUBMBJBfTLMdeqzILzRR4kEAAi0RQH4tgR5lM8hvlNPKoCAQAwHkF8MsNzVG5NcUWeJCAAINE0B+DQMedXjkN+rpZXAQGDMB5Dfm2W16bMivacLEhwAEGiKA/BoCG0VY5BfFNDNICIyRAPIb46y2NSbk1xZp2oEABAITQH6BgUYVDvlFNd0MFgJjIoD8xjSbbY8F+bVNnPYgAIFABJBfHZDyw/XqxBlqXeQ31Jmj3xCInsBo5Jd9sKv/EbW1JvjKmMjvYPLuQS3GVIYABCDQBYFu5Dfdmk23Zmq8sycX1+8eTrdm1+48uv/4WZIkKtd8XwzLlaJaLIxT6sqYyA/5OUcMOxCAwFAIdCM/ZTjF6Mbu0fW7h/snz9d3Dq7deWTAXbx6ffPeyeaDU5PSvw3kh/z6d1TSIwhAYAEC3cvvizXf7MlFkiTvffipWQ6enV9ev3vYb/MlSYL8kN8CJxlFIACB/hHoXn6KycWr1+s7B7cfnqndm/dO1G1PkyLRpc4xXxt7KsuKKLtbafLVhn0aKHNtqgxvt23MPK1Q2cu3VaPY4oWXKKaZQUJgjAT6Ir+b907Wdw4uXr2WkDcfnJq1oE4vPIfb2/Dlp4tmP93yzl62o6s7lfSOI7es+MSWTzMnk8lVAtWxxvgT+Y1xVhkTBKIg0Av5bT44Xd85OHr6soB8/+S5J79UOVZAooIjKp3uyC7xbFdaR9ct3NYsKetGF/Vi2UR+scw044TA6Ah0Lz/ffOpp3+zJxY3doxu7Ry5ztf4qWW5dLSfPfb4N3bbkM72S8DzzQ36FA4ZdCEBgKAS6kZ/8NQazrTaSJNk/eX7tzqPp1uzG7pF6F6ZAMxWR+hJrQM9O3rpMeVNXNT9FjEI7yK8IpLCP/ApA2IUABIZCoBv5haHjLgIL8vPUl1y5zvN7JWKKTVuuNNFmj34L+Y1+ihkgBMZKYMjycx/KOSLK1Oct6cpT50ytiFki02xhyAsv/IWXOUcQWRCAQE8JDE5+9vVO133yFmW15FKbyfdl9jZKnh7aqRLyUw/4ROWsEd725M+b2cOFLQhAYDgEBig/87DONY8RVSY4WSjdto5zs73VoTN1JmaeqoWnIxbzncoR7HDbM4JJZogQGCeBwclvnNMw0FEhv4FOHN2GAASQH8fA6gSQ3+rsqAkBCHRKAPnljw6L90nlndJOZ6jPjSO/Ps8OfYMABOYQQH5z4JB1BQHkdwUgsiEAgb4SQH59nZkh9Av5DWGW6CMEIFBCAPmVQCFpQQLIb0FQFIMABPpGAPn1bUaG1B/kN6TZoq8QgIAggPwEDDaXJID8lgRGcQhAoC8EkF9fZmKI/UB+Q5w1+gwBCCRJgvw4DFYngPxWZ0dNCECgUwLIr1P8A28c+Q18Auk+BOIlgPzinfv6I0d+9RkSAQIQ6IQA8usE+0gaRX4jmUiGAYH4CCC/+OY83IiRXziWRIIABFolgPxaxT2yxpDfyCaU4UAgHgIRya9/H77Xvx4teeAjvyWBURwCEOgLAeTX3ExkH31rP0XXbwj5+UxIgQAEINAGgW7kN92aTbdmanyzJxfX7x5Ot2bX7jy6//hZkiQq13wPhaF11SC/UFNHHAhAAAKBCXQjP2U4NZQbu0fX7x7unzxf3zm4dueRGd/Fq9c3751sPjg1KTU3Wpfflf3tX4+u7LJbgNueLg/2IACBwRDoXn5frPlmTy6SJHnvw0/NcvDs/PL63cOA5ss/snbeTcj25wz5tc+cFiEAAQikBLqXn5qHi1ev13cObj88U7s3752o254mxZ2u7I6i+fD1jT2Tm/rEfomMJPFVU104i+/UdlLyUKp+tVC9FmW317aPvXwzjIFssPIbyETRTQhAoEigL/K7ee9kfefg4tVr2cHNB6dmLWjTlUGsmfY28u3MRUJFhX1XNYXMTI0TU9lRXda0k5JVnkxsH2zv5JbTot/tTNKmSVlxKNvIbygzRT8hAIECgV7Ib/PB6frOwdHTl4XO7Z889+XnGEVUKEv3jKVVc1Vhp2LWiJOSVr9Sfe5as6TFLKTukRjJcDaR33Dmip5CAAIOge7l55tPPe2bPbm4sXt0Y/fI6W+2QitbcZXIJUkSqSxRQmyK6KKw2MwLOCnl9UUotSmKiU1brDTRZvd/C/n1f47oIQQgUEqgG/nJX2Mw22ojSZL9k+fX7jyabs1u7B6pd2Fs1x0H2WR3lSXSU7+Iu6L5OqvCOraw34yTUlFftJttimJi05YqTbTZ/d9Cfv2fI3oIAQiUEuhGfqVdWSjRcZCsUS4SWVyUEJsihigsNvMCTkp5fRFKbYpiYtMWK0202f3fQn79nyN6CAEIlBIYmvycG5nOiMpMUmmspQpnzaQ19Bqy5MVRpyt6R7SS9aTwfC8LWUjTVYfxE/kNY57oJQQg4BEYnPzUDU7roXRf3dfM/GJf2MwL2ueDQkX5w8A5hdXbn7qyCm0bdUJ5TE2CUyxTndGnkvhkIrtg6g1mA/kNZqroKAQg4BIYoPzSASiT5L/QpxWlX3Axv+fnrqocFaVBtNJUebdwIXtjLyusW/JCuVD1XrGYbDBtrpiv6w3mJ/IbzFTRUQhAwCUwUPm5g2CvIwLIryPwNAsBCNQlgPzqEoy5PvKLefYZOwQGTQD51Z++9O6l/+XdRq3fUO8iIL/eTQkdggAEFiOA/BbjRKkyAsivjAppEIDAAAggvwFMUm+7iPx6OzV0DAIQmE8A+c3nQ+48AshvHh3yIACBHhNAfj2enN53Dfn1foroIAQgUE4A+ZVzIXURAshvEUqUgQAEekigVfmpayXfR0agh4c1XYIABCAwnwDyOxiZitofzvwjjFwIQAACPSTQkvx6OPLgXfrgjx///Z3/+Nff+S8/+5vvX/93H37y4kfBmyAgBCAAAQgEIYD8gmBMNu/+4U/8+v70a//62ptvXXvzrZ//td/+a7/5wbdOz8NEJwoEIAABCAQlgPwC4PzWf/vOX/76f77+T/7phvj60pd/9ad/97vf++yHARogBAQgAAEIBCWA/ALg/Du/tffzv/bbQnz55j/4+u/90t6fBWiAEBCAAAQgEJQA8guA86/+xn/9xa/8C19+X/ryr/7E7zwK0AAhIAABCEAgKAHkFwDnX3r3g8I9TyXCf/7Vr/3Yv/qTAA0QAgIQgAAEghJAfgFwrv/eB3/3n/2Gv/LbvPuHb/z+cYAGCAEBCEAAAkEJIL8AOL/7/Yu/sfVH/+gff1n676tf/eov/MGf8sJnAL6EgAAEIBCaAPILQ/TWdz/52d/57//wa+9sbGy8+eab//Lf/Ptf+IM/3fzgkzDRiQIBCEAAAkEJIL9gOD/4/os3fv9Y/YGVv/lv/ydrvmBkCQQBCEAgNAHkF5goq73AQAkHAQhAoAECyC8wVOQXGCjhIAABCDRAAPkFhor8AgMlHAQgAIEGCCC/wFCRX2CghIMABCDQAAHkFxgq8gsMlHAQgAAEGiCA/AJDRX6BgRIOAhCAQAMEkF9gqMgvMFDCQQACEGiAAPILDBX5BQZKOAhAAAINEEB+gaEiv8BACQcBCECgAQLILzBU5BcYKOEgAAEINEAA+QWGuv/kLwJHJBwEIAABCIQmgPwCE+UzjAIDJRwEIACBBgggv8BQWfkFBko4CEAAAg0QQH6BobLyCwyUcBCAAAQaIID8AkNl5RcYKOEgAAEINEAA+YWE+sP/+/9Y+YUESiwIQAACzRBAfiG5/vD//r8Pvv8iZERiQQACEIBAAwSQX0ion7z40S/t/VnIiMSCAAQgAIEGCCC/kFBZ+YWkSSwIQAACjRFAfiHRsvILSZNYEIAABBojgPxCon3+6vXB0x+EjEgsCEAAAhBogADyCwn14OkP3vyj/xUyIrEgAAEIQKABAsgvJFRWfiFpEgsCEIBAYwSQX0i0rPxC0iQWBCAAgcYIIL+QaFn5haRJLAhAAAKNEUB+IdF+8P0XPPMLCZRYEIAABJohgPxCcv3kxY++99kPQ0YkFgQgAAEINEAA+YWE+q3T869/589DRiQWBCAAAQg0QAD5hYTKyi8kTWJBAAIQaIwA8guJlpVfSJrEggAEINAYAeQXEu3p+eXp+WXIiMSCAAQgAIEGCCC/kFC/cfjZNw4/CxmRWBCAAAQg0AAB5BcSKiu/kDSJBQEIQKAxAsgvJFpWfiFpEgsCEIBAYwSQX0i0rPxC0iQWBCAAgcYIIL+QaH/3T/43z/xCAiUWBCAAgWYIIL+QXL/32Q8/efGjkBGJBQEIQAACDRBAfiGhfv07f/6t0/OQEYkFAQhAAAINEEB+IaGy8gtJk1gQgAAEGiOA/EKiZeUXkiaxIAABCDRGAPmFRHvw9AfPX70OGZFYEIAABCDQAAHkFxLqm3/0vw6e/iBkRGJBAAIQgEADBJBfSKis/ELSJBYEIACBxgggv5Bov3H4GX/YOiRQYkEAAhBohgDyC8kV+YWkSSwIQAACjRFAfiHRIr+QNIkFAQhAoDECyC8k2nf/x1Pe9gwJlFgQgAAEmiGA/EJyRX4haRILAhCAQGMEkF9ItMgvJE1iQQACEGiMAPILiRb5haRJLAhAAAKNEUB+IdFufvBJyHDEggAEIACBZgggv5BckV9ImsSCAAQg0BgB5BcSLfILSZNYEIAABBojgPxCokV+IWkSCwIQgEBjBJBfSLTILyRNYkEAAhBojADyC4kW+YWkSSwIQAACjRFAfiHRIr+QNIkFAQhAoDECyC8kWuQXkiaxIAABCDRGAPmFRIv8QtIkFgQgAIHGCCC/kGiRX0iaxIIABCDQGAHkFxIt8gtJk1gQgAAEGiOA/EKiRX4haRILAhCAQGMEkF9ItMgvJE1iQQACEGiMAPILiRb5haRJLAhAAAKNEUB+IdEiv5A0iQUBCECgMQLILyRa5BeSJrEgAAEINEYA+YVEi/xC0iQWBCAAgcYIIL+QaJFfSJrEggAEINAYAeQXEi3yC0mTWBCAAAQaI4D8QqJFfiFpEgsCEIBAYwSWk9/k3QP+QWA1Ao0dwwSGAAQgsDQB5IfOWyKw9LFJBQhAAAKNEVhFfknyEf8gsDgBtVJs7BgmMAQgAIGlCSA/RN44AeS39HlJBQhAoGECyK/xS//iK6SxlkR+DZ/FhIcABJYmgPyQX+MEkN/S5yUVIACBhgkgv8Yv/WNdzy0+LuTX8FlMeAhAYGkCyA/5NU4A+S19XlIBAhBomADya/zSv/gKaawlkV/DZzHhIQCBpQkgP+TXOAHkt/R5SQUIQKBhAsiv8Uv/WNdzi48L+TV8FhMeAhBYmgDyQ36NE0B+S5+XVIAABBomEK/8pu98e8F/iy1x3t9em0zWNo/58zceAeTX8FlMeAhAYGkCyO9qBSK/xQhUriCR39LnJRUgAIGGCSC/UPKrvPTXNMcIqiO/hs9iwkMAAksTiFp+Ba9M3/l2ISVJPipN9IuRMocA8lv6vKQCBCDQMAHkZ1dspZ4rTdzbmNivjW+q636aqJ75HW+u2ex8a237/VwPMtd9Rlgado5UhpKF/Bo+iwkPAQgsTQD5LSu/wost39zw5ee88eGWz8ynRZhl5dXdYokNOxTDzekn8lv6vKQCBCDQMIGo5bfS257f3JhMNvasMs1F3678hPyOt6eTyXT7WJWXtstS9n5Z51aGNfGHu4H8Gj6LCQ8BCCxNIGr5FXRSeofTS8wEZn1mLVgiP2ed91GS7TritCmVYQudHOIu8lv6vKQCBCDQMAHkZ+3leS7NKk20D+f0Pc8k+ciTX+FOZi4/72mgXUeWhh2i7Qp9Rn4Nn8WEhwAEliaA/FaRX35xz9Zt5hfbC/Jzb3hmrdh1nm204Il01w1bUkDcVh1ELvJb+rykAgQg0DCBqOW30jM/11v2oZ278iv3nPfMr0pjIuwg9Da/k8iv4bOY8BCAwNIE4pXf/Ot1da7zHqZc7YntasmlVrP3OZPkmxv5bztUhq3uiavhKo/2IB35LX1eUgECEGiYAPJbViHpa5n2S/yinpFfuuF96V9v+CjJ/Gfy9fsvlWGRX8OnAOEhAIEYCSC/ZeVH+aUJsPKL8dLCmCHQbwLIb+lL+QiWYi0PAfn1+yJA7yAQIwHkh/waJ4D8Yry0MGYI9JsA8mv80t/yMquHzSG/fl8E6B0EYiSA/JBf4wSQX4yXFsYMgX4TQH6NX/p7uBRruUvIr98XAXoHgRgJID/k1zgB5BfjpYUxQ6DfBJBf45f+lpdZPWwO+fX7IkDvIBAjgVXkp65lfIfAUgRiPL0YMwQg0FcCq8ivr2OhXz0loBzZ087RLQhAIEoCyC/KaW930MivXd60BgEIXE0A+V3NiBI1CSC/mgCpDgEIBCeA/IIjJWCRAPIrEmEfAhDomgDy63oGImgf+UUwyQwRAgMjgPwGNmFD7C7yG+Ks0WcIjJsA8hv3/PZidMivF9NAJyAAAUEA+QkYbDZDAPk1w5WoEIDA6gSQ3+rsqLkgAeS3ICiKQQACrRFAfq2hjrch5Bfv3DNyCPSVQO/kt7cxSb/Wto8bQHZV8OPttQZbb2BAwwiJ/IYxT/QSAjER6Jv8cj01Y78rgyO/Ro595NcIVoJCAAI1CNSS33RrNt2aqdZnTy6u3z2cbs2u3Xl0//GzJElUrvm+YCevWpwtGKa82FXBkV85t5qpyK8mQKpDAALBCdSSnzKc6tON3aPrdw/3T56v7xxcu/PIdPTi1eub9042H5yalB5vIL9GJgf5NYKVoBCAQA0CweT3xZpv9uQiSZL3PvzULAfPzi+v3z0ciPmSJEF+NQ6l6qrIr5oNORCAQDcEgslPdf/i1ev1nYPbD8/U7s17J+q2p0kRozRP4LJ3TPJXXLR+Jht7SZIUiqiCk4nKzEI5Ja56S8YNrroiAqxt7/HCi5igYJvILxhKAkEAAoEIBJbfzXsn6zsHF69ey+5tPjg1a8E83WjI+GwZ+eWSKwkivSi7oLZNhcysdqFnO5FvXWVRPzQpcwggvzlwyIIABDohEFJ+mw9O13cOjp6+LIxk/+R5UX56vZVbKPXQRvbLDUU/mVAmQy/7dIIRVR7T7JuqZkNXyUPoThQjNvOqqelFfBvIL745Z8QQ6DuBYPLzzaee9s2eXNzYPbqxe+SQMN4p/kpfwU+6kknWojKP57xV25xfETRRnHuqwpa6gEjSPeDn6gSQ3+rsqAkBCDRDoJb85K8xmG21kSTJ/snza3ceTbdmN3aP1LswcghSf5nA1CJQ68dILq1jygopmTTPfqKQbFC8z6KC6whm9Wnvg1aHKERkdxECyG8RSpSBAATaJFBLfot09PL9zRdvT168Pbl8f7OkvDZQqrDUQr78TIrjQyPEZTxlQlWt/HRvlglaMiiSXALIz+XBHgQg0D2BBuX34u1Jknyefv/88+TzbEOP93h7za63HCU5OxWLPhVFi8q5zbm3YePqxuxPN7jZ01a1CcjPQguwhfwCQCQEBCAQlEBT8lOrPfW9VH7e3UqlICMgZxlYLKwMZ/QnsxeXn7idKgOk28gv7EH27sHk3YOgIQkGAQhAoBaBpuRnOlV629MoTlvHKMvkbOzZW6C6lPnpF8+z5ltLBs87KAS6tn2sC8wPY8bGxmIEWPktxolSEIBAewQal197Q6GlvhJAfn2dGfoFgXgJIL945761kSO/1lDTEAQgsCCBUcpP3Ms0d0p5kLfgEdFAMeTXAFRCQgACtQiMUn61iFA5OAHkFxwpASEAgZoEkF9NgFS/mgDyu5oRJSAAgXYJIL92eUfZGvKLctoZNAR6TQD59Xp6xtE55DeOeWQUEBgTAeQ3ptns6ViQX08nhm5BIGICq8hPXcv4DoGlCER8ljF0CECgdwRWkV/vBkGH+k1AObLffaR3EIBAXASQX1zz3clokV8n2GkUAhCYQwD5zYFDVhgCyC8MR6JAAALhCCC/cCyJVEEA+VWAIRkCEOiMAPLrDH08DSO/eOaakUJgKASQ31BmasD9RH4Dnjy6DoGREkB+I53YPg0L+fVpNugLBCCQEkB+HAeNE0B+jSOmAQhAYEkCyG9JYBRfngDyW54ZNSAAgWYJIL9m+RI9vb3w7sHk3QNQQAACEOgPgUjkl3687dr2cX+4R9UT5BfVdDNYCAyCAPILOE3H22s4toQn8iuBQhIEINApAeQXED/yK4eJ/Mq5kAoBCHRHIIz8Nh+cTrdmZ+eXciC3H55Nt2bmn8xqfZvbnq0jFw0iPwGDTQhAoBcEAsjv4tXr9Z2D6dbs1v7Hckxn55ezJxezJxfrOwfX7x7KrNa3kV/ryEWDyE/AYBMCEOgFgQDyu//42frOwa39j6/deeSPSa3/jp6+9LOSJHWS/lrbPvYUld1HzAuI91XyciJXZKp2RF76psuSkVW/vKByCKpI3reNPZVlm5HtixHmEWTu3FZki8PdRn7DnTt6DoGxEgggv+t3D2/sHt1//Gy6Nds/eZ4kibrVmSTJ2fnldGt2++FZCT4lAK0NI0LrgqyA3s12dOFcPDpPOVRnJkn9yDZWScfzBkzryd6GLm/l59RzRqK6p2s743IqjWgH+Y1oMhkKBEZCoK78jp6+NE/1pluzm/dOJJgbu0dVNzxLPOE4wrOCqJDJT+sjbc8pLArqviwXWatM1/Z+pi2UFippuqhKp6tp5NI6XpODTkB+g54+Og+BURKoK7/NB6fmbqda/JnXXtTunBueUl8ZXOEBzxFScKJcPikiRWzaGROJS0a2MexWFqLs9wZFM7p0VtaOdG7rus7YfiK/sc0o44HA8AnUld/6zsF7H36qOKg3X8xNzrlve5ZowlkEKb/op2Xmp1pv+ZVFiti00yMSl4xsY7hbaUT1JdaAohlVuqA+fUtWVzU/RQy3mVHsIb9RTCODgMCoCNSV36owPE2kgUSiv0ISLYlyeapIEZu2ikhcMrKNUbqlVKpXdqKZtLSn9BZ0xgAAFjNJREFUvsIN2tKII0xEfiOcVIYEgYET6Ep+JV5Q761oj8xzVMExJdrUUfLZSSuY25TLRb56fkVvxGaV5+a1fnVbwyyB/IY5b/QaAmMm0JX89Nud5n5fJgWhqLyAyU/3tdIcx2Sz46SkO+KNlHqRyybfvt7penexpWvWvdJxlbU1hjTkN4ZZZAwQGBeB7uSnbwvmz71SsTkKSzkrjeknY0YYXjmvphZeWrVe5LLpdrullSxF6JYQQ1Th3GwzrrK2xpCG/MYwi4wBAuMi0Kn8iihTJ4zeBMVBR7CP/CKYZIYIgYER6JP8UveJZdTASNLdSgLIrxINGRCAQEcEOpPf8faaI7rsTqCT0hER0ax7d1Lffe1ZJ0V/+7qJ/Po6M/QLAvES6Ex+6vcAtFCcN13inY2Rjhz5jXRiGRYEBkygO/kNGBpdX44A8luOF6UhAIHmCSC/5hlH3wLyi/4QAAAEekcA+fVuSsbXIeQ3vjllRBAYOgHkN/QZHED/kd8AJokuQiAyAsgvsgnvYrjIrwvqtAkBCMwjgPzm0SEvCAHkFwQjQSAAgYAEkF9AmIQqJ4D8yrmQCgEIdEcA+XXHPpqWkV80U81AITAYAshvMFM13I4iv+HOHT2HwFgJIL+xzmyPxoX8ejQZdAUCEMgIID8OhMYJIL/GEdMABCCwJIHeya/mRzvUrL4kvT4W7yEB5NfHA4U+QSBuAlHJL/uI2w4+lKHVdpFf3Gc0o4cABBYiMHT5pZd6+fm3cy/9rUpI4G+13bkERKcW2iziXaiSV4iVn4eEBAhAoGMCYeS3+eB0ujU7O7+Uo7n98Gy6NTP/ZNac7eWu3ZlWFpbfnGbHk7UcwPnj9vDOL16Vi/yqyJAOAQh0RSCA/C5evV7fOZhuzW7tfyyHcXZ+OXtyMXtysb5zcP3uocyas73ctdu7Oi9XfU4/BpsVkoCHdzUqyG81btSCAASaIxBAfvcfP1vfObi1//G1O4/8jqr139HTl35WUvhA22wF51+70xT7ZZd5bnp+9zOvnl2180q2RiKD+yW9p4GyhbXtY1m7bDRZmqxjbsjamrJjelC2XZlrUyvbmgdQhhIESquoBvJOqgGsbW872N2by3N6VJaF/MqokAYBCHRJIID8rt89vLF7dP/xs+nWbP/keZIk6lZnkiRn55fTrdnth2clQ1RXZ3td3tvItq0n0jrZlVhooLifBbEx8gqTianiVpDBs5xiSRvK717mKhO4ZETK5bZEPqJ8GDbdVM3aMOnOnjcwU8ls+D00ACfFcZlGkr0Nu+38Z0CxdiW3QC9Md+ZsIL85cMiCAAQ6IVBXfkdPX5qnetOt2c17J3IYN3aPqm54Sg/JKjJdbusy7vXY3SuxpRKSdpoMmG5bSSb5kqisZN501pYwh+6R/ZmG1AFsapX83HilI5nXmhyLbGz+uGTJQseyim73vU4Vqi+4i/wWBEUxCECgNQJ15bf54NTc7VSLP/Pai9qtuOG5iCfKL+/OBdnZSaH5dWRK1bbCLXLFpp2K0kSbre8olhirpGbWc1vUG4hrbdmK7axrqryM35aXkjWmb7qa/wB4xQr/H/D7sGgK8luUFOUgAIG2CNSV3/rOwXsffqp6q958MTc5573t6V/r9YDFJVhs6tz0Z5qsL/teHL+OTKnaVuFFrti0TZcm2mwbRHlF97FMyVm/rfq0N42Q9IaI4TbkDdxk+72UKem2WPAWs2SXioth08LSG8hvaWRUgAAEGiZQV34rdm+ha7e8Mtt2nKrOTlrGryNTqrZVdJErNm3LpYk229nKOla1qMoyXc94A3Gi+TvV5f1e2hSvls0qQ3fV6tPvVnkK8ivnQioEINAdgY7kV31ZveJyXKg492quqFYFlOleySyuqyf1Qkghbd7EiQbEZtW9RG8k80LPW5Q5bWVBbEqxEWeYtphpuljeZCy3gfyW40VpCECgeQJdyU8tNOz9y3Q/u8fnXIKzi69ZP+ULO3PPM6XjFC/Zd0vI0nJbcXZS0h3RPdUTccOwbGrs652FnojI1T7JWhT3OZ33MkuaK/SwFGBWTbTutKECGLyimGmtLM1kLryB/BZGRUEIQKAlAt3JLx1gfvlVT7jUdd+73GrtqEL+ysvE8N2ZMZQBq7YVbJmbpsiW03aL+aqW+J4WsF+iq6amWyIvawu62UKEohFn06lQAdDttxhU4VcXTSfLW1igN05FsYP8BAw2IQCBXhDoVn69QLBwJ1I71FDAwu2MriDyG92UMiAIDJ4A8lt4CstXRgtXj7gg8ot48hk6BHpKAPmVT8zx9pq9G6lv0OoU52ajuc+pc8sDrpraZlur9vGqesjvKkLkQwACbRNAfhXExbOxTG/NqK2i8ZElI7+RTSjDgcAICCC/EUxi34eA/Po+Q/QPAvERQH7xzXnrI0Z+rSOnQQhA4AoCyO8KQGTXJ4D86jMkAgQgEJYA8gvLk2glBJBfCRSSIACBTgkgv07xx9E48otjnhklBIZEAPkNabYG2lfkN9CJo9sQGDEB5Dfiye3L0JBfX2aCfkAAApoA8tMk+NkYAeTXGFoCQwACKxJAfiuCo9riBJDf4qwoCQEItEMA+bXDOepWkF/U08/gIdBLAsivl9Myrk4hv3HNJ6OBwBgIjF5+fBZD94cp8ut+DugBBCDgEkB+Lg/2GiCA/BqASkgIQKAWAeS3CL50+cjH2C5CqrQM8ivFQiIEINAhgTDy23xwOt2anZ1fypHcfng23ZqZfzKrxe0Qtz2zjzdCfivPGvJbGR0VIQCBhggEkN/Fq9frOwfTrdmt/Y9lL8/OL2dPLmZPLtZ3Dq7fPZRZLW4jvxZhVzSF/CrAkAwBCHRGIID87j9+tr5zcGv/42t3HvnjUOu/o6cvC1l6NeV8aKxcXeXWSn9MJuKjZFWC/vx0WUO1IAOubR9L+ek2bVcqUnT0ycae29y8u595S6J90eskSUTGxImjOyGaUsOSNQoDlVluM3ZwvdlCfr2ZCjoCAQjkBALI7/rdwxu7R/cfP5tuzfZPnidJom51Jklydn453Zrdfnjm89ZXb3vlVinmIp+rwOynIbI0W8PbL4RQ+VadWbYT0E3xq6vCbil/LCol77DpXrZvW9vbMDlqIGZXNWt9mO2vra0VU7aP86ZVgXx3sc5VdbqVdOTXCmYagQAEliBQV35HT1+ap3rTrdnNeyey8Ru7R1U3PNUV37ohq5b6Qjuh4I5cfTpXt+Jc+mX1vMAVnriquorilNItez+zDsv+zasmu+r0MQvrhco0nsf2wspYXq/6kID8+jAL9AECEJAE6spv88GpudupFn/mtRe169/wVM17l/A0WSZ6l3QvIQskqpQWkImibM5ApqQlCzIuKZUnlfyQLalsLyVrztxT1aKUnVAV56XMyyvpVR+SkF8fZoE+QAACkkBd+a3vHLz34acqonrzxdzknP+2p38NX01+2ZpIOctzTdotmei3KVLEpgSUbs/JEkVlSypZpqTbdlm7eLfyBmwXsi0jULNRrm3RvQ43kV+H8GkaAhAoJVBXfqVBF0m0V3NRWiZKc2RFvIQsVVQpLSATRdm8UZEiNkWPim0Us8S+bEkl2xQvuM0qc6tXXPjXzxN96Ocm8uvnvNArCMRMoFv56Rt/+Qw413WpB5Xvp7jiyKoXQqZ1zGNEZ72Vxcyy80WT07pzTFTnyGJ+92xKMYLT1WKmOyrVhCgjNmXzPd5Gfj2eHLoGgUgJdCs/55V/KaLC/cp8crLLvlVZ/vanuOGXhbAP7lR5Ib/MfiZfZ5sAherJ3kaeZS025zDxC4mULLRuKNux3fJtdkWKEyxDVVD+nF52kYX8uqBOmxCAwDwC3cpvY08LKHt2peWQdViYQw7AqSBFmBeS+akSimFkft6812zJg7TcV1WvxKSNF1sqpIiGV/31Q9FR0x8fnKTVj23k1495oBcQgIAl0LX8bE/YGi0B5DfaqWVgEBgsAeQ32KkbTseR33Dmip5CIBYCyG/ZmXZvOOo7pP1+6LbsGAOXR36BgRIOAhCoTQD51UZIgKsIIL+rCJEPAQi0TaAz+bU9UNrrjgDy6449LUMAAuUEkF85F1IDEkB+AWESCgIQCEIA+QXBSJB5BJDfPDrkQQACXRBAfl1Qj6xN5BfZhDNcCAyAAPIbwCQNvYvIb+gzSP8hMD4CyG98c9q7ESG/3k0JHYJA9ASQX/SHQPMAkF/zjGkBAhBYjgDyW44XpVcggPxWgEYVCECgUQLIr1G8BE8JID+OAwhAoG8EkF/fZmSE/UF+I5xUhgSBgRNAfgOfwCF0H/kNYZboIwTiIoD84prvTkaL/DrBTqMQgMAcAn2TX/aRr3xEwpwZG2AW8hvgpNFlCIycAPIb+QT3YXjIrw+zQB8gAAFJIIz8Nh+cTrdmZ+eXMvTth2fTrZn5J7PYjooA8otquhksBAZBIID8Ll69Xt85mG7Nbu1/LMd8dn45e3Ixe3KxvnNw/e6hzGI7KgLIL6rpZrAQGASBAPK7//jZ+s7Brf2Pr9155I9Zrf+Onr70s5zPRN/YUwXSRPXML3v8pz8pPf9pnwbKXJvqN0JK9wSQX/dzQA8gAAGXQAD5Xb97eGP36P7jZ9Ot2f7J8yRJ1K3OJEnOzi+nW7PbD8/cRpMkKbzYsrfhy8+p45Z39rIdXd2pxE4/CCC/fswDvYAABCyBuvI7evrSPNWbbs1u3juxsZPkxu5RxQ3PdIFXKiy78hOBHNkpccrKpXVEdTa7JYD8uuVP6xCAgE+grvw2H5yau51q8Wdee1G7pTc885Vffn/T6VWJyFz1+e4rSXFCstMxAeTX8QTQPAQg4BGoK7/1nYP3PvxUhVVvvpibnFe+7Zl6Tn2JZZwnv4L6tDd1VfNTxPBGSUKnBJBfp/hpHAIQKCFQV34lIZdNyuxmFoEF+Xnqy+WH6pbF3GF55NchfJqGAARKCfRAfkmSCOOJzSrPZULEfqXz2ctE5NfLaaFTEIiaQFfys693uu6THqyWXGpI+b7M3ga/7dDjwxj59Xhy6BoEIiXQnfzMw7qJ/sW+bArMyi8TnCyUblvHudmsA/t8/CK/Ps8OfYNAnAS6kl+ctCMdNfKLdOIZNgR6TAD59XhyxtI15DeWmWQcEBgPAeQ3nrns7UiQX2+nho5BIFoCyC/aqW9v4MivPda0BAEILEYA+S3GiVI1CCC/GvCoCgEINEIA+TWClaCSAPKTNNiGAAT6QAD59WEWRt4H5DfyCWZ4EBggAeQ3wEkbWpeR39BmjP5CYPwEVpGfupbxHQJLERj/ycQIIQCB4RBAfgdLXcEpvDKB4ZwU9BQCEBg/geXkN34ejBACEIAABCIggPwimGSGCAEIQAACLgHk5/JgDwIQgAAEIiCA/CKYZIYIAQhAAAIuAeTn8mAPAhCAAAQiIID8IphkhggBCEAAAi4B5OfyYA8CEIAABCIggPwimGSGCAEIQAACLgHk5/JgDwIQgAAEIiCA/CKYZIYIAQhAAAIuAeTn8mAPAhCAAAQiIID8IphkhggBCEAAAi4B5OfyYA8CEIAABCIggPwimGSGCAEIQAACLgHk5/JgDwIQgAAEIiCA/CKYZIYIAQhAAAIuAeTn8mAPAhCAAAQiIID8IphkhggBCEAAAi4B5OfyYA8CEIAABCIggPwimGSGCAEIQAACLgHk5/JgDwIQgAAEIiCA/CKYZIYIAQhAAAIuAeTn8mAPAhCAAAQiIID8IphkhggBCEAAAi4B5OfyYA8CEIAABCIggPwimGSGCAEIQAACLgHk5/JgDwIQgAAEIiCA/CKYZIYIAQhAAAIuAeTn8mAPAhCAAAQiIID8IphkhggBCEAAAi4B5OfyYA8CEIAABCIggPwimGSGCAEIQAACLgHk5/JgDwIQgAAEIiCA/CKYZIYIAQhAAAIuAeTn8mAPAhCAAAQiIID8IphkhggBCEAAAi4B5OfyYA8CEIAABCIggPwimGSGCAEIQAACLgHk5/JgDwIQgAAEIiCA/CKYZIYIAQhAAAIuAeTn8mAPAhCAAAQiIID8IphkhggBCEAAAi4B5OfyYA8CEIAABCIggPwimGSGCAEIQAACLgHk5/JgDwIQgAAEIiCA/CKYZIYIAQhAAAIuAeTn8mAPAhCAAAQiIID8IphkhggBCEAAAi4B5OfyYA8CEIAABCIggPwimGSGCAEIQAACLgHk5/JgDwIQgAAEIiCA/CKYZIYIAQhAAAIuAeTn8mAPAhCAAAQiIID8IphkhggBCEAAAi4B5OfyYA8CEIAABCIggPwimGSGCAEIQAACLgHk5/JgDwIQgAAEIiCA/CKYZIYIAQhAAAIuAeTn8mAPAhCAAAQiIID8IphkhggBCEAAAi4B5OfyYA8CEIAABCIggPwimGSGCAEIQAACLgHk5/JgDwIQgAAEIiCA/CKYZIYIAQhAAAIuAeTn8mAPAhCAAAQiIID8IphkhggBCEAAAi4B5OfyYA8CEIAABCIggPwimGSGCAEIQAACLgHk5/JgDwIQgAAEIiCA/CKYZIYIAQhAAAIuAeTn8mAPAhCAAAQiIID8IphkhggBCEAAAi4B5OfyYA8CEIAABCIggPwimGSGCAEIQAACLgHk5/JgDwIQgAAEIiCA/CKYZIYIAQhAAAIuAeTn8mAPAhCAAAQiIID8IphkhggBCEAAAi4B5OfyYA8CEIAABCIggPwimGSGCAEIQAACLgHk5/JgDwIQgAAEIiCA/CKYZIYIAQhAAAIuAeTn8mAPAhCAAAQiIID8IphkhggBCEAAAi4B5OfyYA8CEIAABCIggPwimGSGCAEIQAACLgHk5/JgDwIQgAAEIiCA/CKYZIYIAQhAAAIuAeTn8mAPAhCAAAQiIID8IphkhggBCEAAAi4B5OfyYA8CEIAABCIggPwimGSGCAEIQAACLgHk5/JgDwIQgAAEIiCA/CKYZIYIAQhAAAIuAeTn8mAPAhCAAAQiIID8IphkhggBCEAAAi4B5OfyYA8CEIAABCIggPwimGSGCAEIQAACLgHk5/JgDwIQgAAEIiCA/CKYZIYIAQhAAAIuAeTn8mAPAhCAAAQiIID8IphkhggBCEAAAi4B5OfyYA8CEIAABCIggPwimGSGCAEIQAACLgHk5/JgDwIQgAAEIiCA/CKYZIYIAQhAAAIuAeTn8mAPAhCAAAQiIID8IphkhggBCEAAAi4B5OfyYA8CEIAABCIggPwimGSGCAEIQAACLgHk5/JgDwIQgAAEIiCA/CKYZIYIAQhAAAIuAeTn8mAPAhCAAAQiIID8IphkhggBCEAAAi4B5OfyYA8CEIAABCIggPwimGSGCAEIQAACLgHk5/JgDwIQgAAEIiCA/CKYZIYIAQhAAAIuAeTn8mAPAhCAAAQiIID8IphkhggBCEAAAi4B5OfyYA8CEIAABCIggPwimGSGCAEIQAACLgHk5/JgDwIQgAAEIiCA/CKYZIYIAQhAAAIuAeTn8mAPAhCAAAQiIID8IphkhggBCEAAAi4B5OfyYA8CEIAABCIggPwimGSGCAEIQAACLgHk5/JgDwIQgAAEIiCA/CKYZIYIAQhAAAIugf8PwrkKuMqiBXoAAAAASUVORK5CYII=;" vertex="1" parent="1">
          <mxGeometry x="80" y="40" width="596" height="668" as="geometry" />
        </mxCell>
      </root>
    </mxGraphModel>
  </diagram>
</mxfile>
